<svg version="1.1" xmlns="http://www.w3.org/2000/svg" xmlns:xlink="http://www.w3.org/1999/xlink" x="0px" y="0px"
   viewBox="0 0 64 64" enable-background="new 0 0 64 64" width="64px" height="64px" xml:space="preserve">
      <path fill="#202020" d="M21.9,44h-5.9c-1.1,0-2,0.9-2,2s0.9,2,2,2h5.9c1.1,0,2-0.9,2-2S23,44,21.9,44z"/>
      <path fill="#202020" d="M48,44h-5.9c-1.1,0-2,0.9-2,2s0.9,2,2,2H48c1.1,0,2-0.9,2-2S49.1,44,48,44z"/>
      <path fill="#202020" d="M29.1,10h5.9c1.1,0,2-0.9,2-2s-0.9-2-2-2h-5.9c-1.1,0-2,0.9-2,2S28,10,29.1,10z"/>
      <path fill="#202020" d="M58,6c0-3.3-2.7-6-6-6H12C8.7,0,6,2.7,6,6v50h2v4c0,2.2,1.8,4,4,4h6c2.2,0,4-1.8,4-4v-4h20v4
            c0,2.2,1.8,4,4,4h6c2.2,0,4-1.8,4-4v-4h2V6z M12,4h40c1.1,0,2,0.9,2,2v8H10V6C10,4.9,10.9,4,12,4z M10,52V40h44v12H10z M10,36V18
            h44v18H10z M18,60h-6v-4h6V60z M52,60h-6v-4h6V60z"/>
</svg>
